<?xml version="1.0" standalone="no"?>
<!DOCTYPE svg PUBLIC "-//W3C//DTD SVG 20010904//EN"
 "http://www.w3.org/TR/2001/REC-SVG-20010904/DTD/svg10.dtd">
<svg version="1.0" xmlns="http://www.w3.org/2000/svg"
 width="1232.000000pt" height="726.000000pt" viewBox="0 0 1232.000000 726.000000"
 preserveAspectRatio="xMidYMid meet">

<g transform="translate(0.000000,726.000000) scale(0.100000,-0.100000)"
fill="#000000" stroke="none">
<path d="M6052 6189 c-166 -12 -415 -65 -587 -124 -615 -210 -1142 -669 -1425
-1240 -25 -49 -45 -91 -45 -92 -1 -1 -61 9 -135 23 -242 46 -349 16 -350 -98
0 -43 20 -75 64 -104 23 -15 59 -39 80 -53 54 -35 186 -172 186 -192 0 -9 -9
-59 -19 -111 -56 -269 -66 -551 -31 -824 12 -87 23 -161 25 -165 3 -4 11 -40
19 -81 44 -222 169 -529 304 -743 156 -248 383 -504 582 -657 467 -359 982
-537 1555 -538 789 -1 1522 366 1999 1000 385 511 557 1136 489 1781 l-6 60
176 173 c114 112 178 182 183 200 10 42 -7 96 -37 119 -26 18 -34 19 -172 8
-80 -6 -172 -11 -205 -11 l-60 0 -47 113 c-57 134 -115 253 -161 325 -19 29
-34 55 -34 58 0 5 -93 145 -115 173 -140 175 -301 342 -430 446 -38 31 -79 63
-89 72 -102 83 -422 260 -581 321 -366 140 -733 192 -1133 161z m583 -163
c412 -67 793 -235 1109 -489 292 -233 529 -539 680 -875 25 -55 48 -111 51
-125 6 -23 4 -25 -47 -29 -65 -7 -74 -3 -83 30 -13 52 -147 315 -175 342 -3 3
-11 17 -19 33 -18 34 -141 197 -190 251 -64 70 -196 200 -247 243 -598 502
-1407 655 -2159 408 -140 -46 -381 -165 -509 -250 -202 -135 -444 -359 -546
-505 -13 -19 -27 -37 -31 -40 -13 -10 -118 -177 -159 -253 -45 -83 -43 -82
-127 -69 l-43 7 34 65 c70 138 204 340 288 437 91 105 295 298 385 365 367
273 723 412 1203 472 84 10 489 -2 585 -18z m-80 -1176 c178 -40 386 -120 557
-213 84 -46 237 -150 250 -170 4 -7 36 -6 100 4 93 14 207 15 713 10 241 -3
552 9 759 30 84 8 103 7 123 -6 63 -42 43 -116 -54 -200 -112 -96 -283 -277
-402 -425 -141 -175 -334 -307 -496 -340 -33 -7 -120 -32 -192 -55 -173 -56
-254 -69 -371 -61 -52 4 -99 8 -105 9 -24 5 -16 -29 10 -45 15 -9 43 -30 61
-46 27 -25 33 -37 34 -72 0 -28 -7 -52 -21 -71 -27 -37 -27 -41 9 -61 29 -16
31 -16 74 8 59 33 149 43 175 20 14 -13 17 -25 11 -60 -7 -50 -23 -70 -63 -80
-34 -8 -35 -26 -2 -26 59 0 148 -64 161 -116 8 -30 -20 -70 -58 -83 -24 -9
-38 -8 -61 4 -30 15 -32 14 -63 -16 -27 -27 -32 -39 -37 -97 -6 -81 -46 -208
-78 -252 -13 -18 -37 -39 -54 -47 -16 -8 -41 -28 -55 -44 -16 -19 -50 -39 -92
-54 -63 -23 -70 -23 -110 -10 -24 8 -55 17 -71 20 -15 3 -49 29 -79 60 -29 30
-56 55 -60 55 -17 0 -7 -82 23 -197 37 -142 46 -247 30 -347 -10 -63 -10 -79
3 -111 28 -66 32 -62 -149 -125 -251 -88 -423 -115 -720 -113 -126 0 -250 5
-275 10 l-45 9 -3 99 c-3 109 17 266 73 574 48 267 49 281 31 281 -9 0 -16 -4
-16 -10 0 -5 -14 -10 -30 -10 -23 0 -33 -6 -39 -23 -5 -13 -23 -45 -40 -72
-38 -60 -40 -99 -6 -121 14 -9 34 -14 45 -11 11 3 22 2 24 -1 2 -4 -7 -59 -20
-122 -33 -160 -66 -428 -62 -505 3 -60 1 -65 -17 -65 -92 1 -500 133 -544 176
-18 17 -6 104 31 233 l24 84 -24 24 c-27 27 -35 28 -52 7 -7 -8 -25 -14 -38
-12 -32 4 -71 69 -72 121 0 20 -4 37 -9 37 -18 0 -41 -31 -41 -54 0 -13 -8
-30 -18 -39 -23 -21 -110 -26 -122 -6 -12 17 -2 135 16 208 14 56 12 68 -18
89 -25 18 -68 113 -68 149 0 17 14 61 31 98 33 70 72 105 117 105 13 0 29 6
36 13 8 6 25 22 40 35 l27 23 -29 24 c-34 28 -57 79 -67 147 -4 26 -15 55 -25
66 -34 36 -60 100 -60 147 0 58 38 122 78 131 29 7 52 22 52 34 0 4 -30 11
-67 15 -104 10 -299 51 -386 79 -202 67 -451 237 -557 381 -21 29 -70 114
-108 191 -39 76 -88 165 -109 196 -64 97 -183 218 -263 270 -106 69 -120 85
-120 128 0 26 7 43 26 61 23 21 36 24 117 27 74 3 127 -4 267 -32 96 -19 234
-42 305 -51 72 -9 222 -38 335 -65 113 -26 239 -54 280 -60 96 -15 213 -38
267 -52 39 -9 46 -8 100 25 304 183 590 304 828 348 132 25 367 20 500 -11z
m-2548 -812 l42 -93 -9 -123 c-19 -269 27 -601 121 -868 141 -401 392 -754
724 -1016 33 -27 65 -52 72 -58 35 -29 240 -153 313 -190 177 -89 424 -169
635 -206 126 -22 479 -30 613 -14 282 33 533 109 782 236 94 48 287 166 300
183 3 4 21 18 40 31 86 60 280 251 378 372 308 382 492 889 492 1357 l0 90 50
53 c27 29 50 56 50 61 0 4 5 7 10 7 16 0 12 -312 -5 -452 -66 -531 -297 -1003
-674 -1378 -75 -75 -156 -151 -180 -170 -130 -104 -247 -180 -429 -277 -163
-87 -468 -185 -692 -222 -323 -53 -715 -28 -1030 66 -169 51 -385 144 -515
222 -27 17 -63 38 -79 47 -50 28 -168 115 -251 185 -210 176 -354 343 -512
590 -47 74 -159 306 -193 399 -111 307 -160 641 -140 960 9 155 28 300 39 300
3 0 25 -42 48 -92z m1961 -1711 c2 -18 -2 -29 -13 -33 -24 -9 -39 10 -31 41 9
35 40 30 44 -8z"/>
<path d="M6055 4704 c-29 -14 -28 -14 20 -7 70 11 129 7 165 -12 28 -14 34
-14 78 1 26 9 81 16 122 17 66 0 71 2 40 10 -23 6 -65 5 -125 -3 -65 -8 -98
-9 -118 -1 -39 15 -146 12 -182 -5z"/>
<path d="M3864 4528 c30 -34 81 -121 141 -240 152 -301 190 -355 323 -466 124
-102 292 -166 389 -147 87 16 144 8 232 -36 81 -40 85 -41 99 -23 9 13 12 32
7 59 -16 108 -17 162 -1 221 9 34 16 74 16 88 0 47 -37 111 -102 178 -110 113
-162 139 -362 183 -44 10 -111 30 -149 46 -39 16 -142 47 -231 69 -89 21 -215
57 -281 79 -66 23 -121 41 -123 41 -2 0 17 -24 42 -52z"/>
<path d="M6180 4530 c-120 -5 -175 -11 -202 -24 -21 -9 -38 -18 -38 -20 0 -2
37 6 82 16 72 17 93 18 177 9 66 -8 107 -8 131 -1 53 15 220 12 250 -5 14 -8
30 -14 35 -14 6 0 -8 9 -30 21 -48 25 -147 30 -405 18z"/>
<path d="M8780 4334 c-31 -12 -96 -35 -145 -49 -88 -25 -96 -26 -350 -23 -235
2 -270 0 -366 -20 -137 -28 -211 -65 -302 -149 -112 -104 -132 -156 -102 -272
18 -67 18 -72 1 -129 -25 -82 -21 -98 29 -94 108 8 246 5 298 -6 106 -24 305
27 449 114 158 96 241 190 445 505 24 36 41 57 97 117 35 38 24 39 -54 6z"/>
<path d="M6839 4227 c-53 -15 -126 -60 -183 -112 -50 -46 -38 -58 17 -16 23
17 73 47 112 66 58 29 80 35 135 35 88 0 129 -13 206 -66 78 -53 98 -49 34 7
-97 84 -215 116 -321 86z"/>
<path d="M5610 4203 c-92 -14 -260 -81 -260 -103 0 -14 -1 -14 82 19 183 73
314 66 441 -25 53 -38 65 -24 16 20 -48 43 -89 64 -159 80 -65 16 -74 16 -120
9z"/>
<path d="M5513 4061 c-76 -20 -169 -102 -197 -176 -32 -80 -25 -121 27 -166
109 -96 341 -152 496 -118 56 12 154 75 159 103 10 48 -62 206 -119 264 -66
66 -136 94 -244 98 -49 2 -104 -1 -122 -5z m35 -78 c65 -72 -45 -167 -113 -98
-29 28 -32 61 -9 93 33 47 82 49 122 5z m120 -126 c2 -12 -3 -17 -17 -17 -15
0 -21 6 -21 21 0 25 33 22 38 -4z"/>
<path d="M6828 4056 c-123 -33 -227 -153 -259 -300 l-13 -59 44 -38 c76 -66
209 -86 358 -54 114 24 182 55 275 129 30 23 33 87 7 151 -30 73 -111 149
-182 170 -62 18 -165 18 -230 1z m70 -72 c27 -31 28 -50 2 -91 -16 -28 -26
-33 -56 -33 -38 0 -67 23 -79 61 -9 26 15 71 45 86 31 16 59 8 88 -23z m122
-124 c0 -13 -7 -20 -20 -20 -13 0 -20 7 -20 20 0 13 7 20 20 20 13 0 20 -7 20
-20z"/>
<path d="M6156 3668 c-13 -52 -8 -61 28 -55 24 4 39 1 47 -9 15 -18 63 -18 78
0 8 10 23 13 47 9 29 -5 34 -3 34 15 0 28 -10 52 -22 52 -5 0 -6 -9 -3 -20 6
-17 2 -20 -29 -20 -20 0 -45 -5 -55 -12 -14 -9 -23 -8 -41 5 -14 10 -33 14
-50 10 -25 -5 -27 -3 -23 21 6 32 -2 35 -11 4z"/>
<path d="M6112 3436 c-35 -11 -142 -86 -142 -99 0 -5 12 -1 28 9 100 66 104
67 271 69 163 1 204 -6 264 -48 35 -24 46 -16 16 12 -53 50 -95 60 -257 63
-84 2 -165 -1 -180 -6z"/>
<path d="M6119 3368 c-10 -4 -19 -9 -19 -12 0 -4 55 -7 160 -9 60 -1 195 18
160 23 -45 5 -284 4 -301 -2z"/>
<path d="M7383 3351 c-12 -16 -35 -32 -50 -35 -78 -20 -135 -28 -203 -31 -41
-1 -85 -7 -98 -12 -13 -5 -61 -5 -113 -1 -55 5 -97 4 -108 -2 -12 -6 -32 -5
-57 2 -73 20 -303 5 -312 -20 -2 -7 -17 -12 -34 -12 -16 0 -42 -6 -56 -14 -63
-32 -146 -56 -197 -56 -14 0 -36 -7 -48 -15 -13 -8 -61 -17 -112 -21 -94 -7
-138 -22 -153 -52 -27 -51 -18 -196 13 -232 7 -8 15 -46 18 -85 3 -38 8 -81
11 -95 13 -51 -15 -61 -133 -48 -51 6 -45 -84 6 -102 16 -6 36 -15 46 -20 19
-11 207 -2 207 10 0 7 47 15 163 29 42 5 64 13 75 28 16 19 57 30 145 38 16 2
34 8 40 14 6 6 19 11 28 11 10 0 38 16 63 35 41 31 63 40 154 62 12 3 28 13
35 23 7 10 32 20 58 24 26 4 54 15 64 26 10 11 27 19 39 18 11 -1 50 12 86 29
91 44 167 73 190 73 21 0 27 -15 10 -25 -13 -8 -60 -164 -60 -202 0 -17 -10
-43 -22 -58 -20 -25 -20 -31 -9 -69 7 -22 13 -54 12 -70 -1 -37 18 -71 72
-128 39 -42 49 -48 85 -48 23 0 42 -4 42 -9 0 -33 139 1 175 43 11 13 38 35
61 50 55 36 76 68 103 156 12 41 26 87 30 102 8 25 4 78 -6 78 -3 0 -18 -9
-34 -20 -15 -12 -49 -30 -74 -41 -31 -14 -45 -26 -45 -39 0 -11 -4 -20 -10
-20 -5 0 -10 -12 -10 -28 0 -19 -7 -30 -22 -37 -13 -6 -32 -27 -44 -49 -27
-49 -39 -34 -39 50 0 37 -6 68 -14 78 -10 12 -10 20 -3 29 8 9 8 33 2 77 -6
41 -6 68 0 74 6 6 10 26 10 45 0 64 19 109 57 138 19 16 55 47 78 71 l43 43
-24 15 c-13 9 -35 14 -49 12 -14 -3 -25 -4 -25 -3 0 1 18 21 39 44 44 48 55
78 41 115 -9 26 -84 86 -104 85 -6 0 -21 -13 -33 -28z"/>
<path d="M5111 3355 c-96 -34 -109 -168 -25 -252 13 -13 24 -35 24 -49 0 -90
52 -170 153 -235 70 -45 195 -96 255 -102 23 -3 56 -12 73 -21 45 -23 223 -68
251 -64 18 2 23 9 21 28 -7 105 -17 168 -28 186 -25 40 -33 91 -25 168 6 67
11 79 36 101 31 26 47 30 158 40 38 3 77 10 87 16 10 5 55 16 100 24 44 7 84
16 87 19 12 12 -5 14 -57 5 -32 -5 -61 -4 -71 1 -17 9 -74 12 -235 12 -100 1
-155 -5 -195 -22 -25 -10 -39 -10 -72 -1 -29 9 -75 11 -154 6 l-113 -7 -64 36
c-35 19 -85 56 -110 81 -25 25 -50 44 -54 44 -4 -1 -24 -7 -42 -14z"/>
<path d="M5050 2747 c-34 -17 -89 -122 -90 -170 0 -40 38 -117 69 -140 9 -6
22 -24 28 -39 7 -16 18 -28 25 -28 12 0 40 -24 80 -69 7 -7 42 -41 78 -75 100
-95 127 -123 133 -137 14 -41 56 74 64 176 5 69 5 71 -21 83 -15 7 -33 12 -40
12 -7 0 -30 20 -52 45 -32 34 -50 46 -82 51 -38 6 -42 9 -42 35 0 16 -8 34
-18 41 -24 16 -42 51 -42 77 0 12 -6 21 -14 21 -13 0 -26 48 -26 103 0 30 -12
33 -50 14z"/>
<path d="M7375 2633 c4 -21 7 -58 7 -83 0 -38 2 -42 12 -26 6 11 21 30 34 43
12 13 22 29 22 36 0 7 7 22 15 33 19 28 11 34 -48 34 l-49 0 7 -37z"/>
</g>
</svg>
